<svg xmlns="http://www.w3.org/2000/svg" fill="none" viewBox="0 0 256 195" height="195" width="256">
<g clip-path="url(#clip0_215_1023)">
<path fill="#1A1A1A" d="M128 0L256 35.9211L240.64 169.342L128 195L15.36 169.342L0 35.9211L128 0Z"></path>
<path fill="#B3874B" d="M128 190.497L127.859 190.464L19.9269 164.708L19.8731 164.288L4.45166 40.6113L4.95086 40.4651L128 4.49527L251.548 40.6113L251.484 41.127L236.073 164.706L235.661 164.803L128 190.494V190.497ZM21.0328 163.715L128 189.242L234.967 163.715L250.209 41.494L128 5.7679L5.78798 41.494L21.0302 163.715H21.0328Z"></path>
<path fill="#B3874B" d="M91.1716 149.324C92.7588 149.324 93.6855 149.881 93.6855 151.112C93.6855 151.805 93.3835 152.205 92.915 152.518C93.5294 152.821 93.898 153.298 93.898 154.13C93.898 155.205 93.1787 156.064 91.3841 156.064H88.8215V149.324H91.1716ZM90.442 151.895H91.123C91.7758 151.895 92.0702 151.689 92.0702 151.297C92.0702 150.904 91.8654 150.663 90.9771 150.663H90.442V151.895ZM90.442 154.717H91.2126C91.9345 154.717 92.2852 154.473 92.2852 153.973C92.2852 153.427 91.914 153.239 91.0948 153.239H90.442V154.715V154.717Z"></path>
<path fill="#B3874B" d="M101.112 149.324V153.339C101.112 155.33 99.9524 156.162 98.4599 156.162C96.9674 156.162 95.8103 155.33 95.8103 153.35V149.324H97.4282V153.35C97.4282 154.335 97.7201 154.815 98.4599 154.815C99.1997 154.815 99.4941 154.335 99.4941 153.35V149.324H101.112Z"></path>
<path fill="#B3874B" d="M105.011 156.067H103.393V149.326H105.011V156.067Z"></path>
<path fill="#B3874B" d="M108.91 154.717H111.542V156.064H107.292V149.324H108.91V154.717Z"></path>
<path fill="#B3874B" d="M113.349 156.067V149.326H115.853C117.383 149.326 118.505 150.078 118.505 152.208V153.185C118.505 155.294 117.383 156.067 115.853 156.067H113.349ZM116.887 153.185V152.208C116.887 151.299 116.692 150.673 115.853 150.673H114.967V154.72H115.853C116.69 154.72 116.887 154.094 116.887 153.185Z"></path>
<path fill="#B3874B" d="M126.016 156.067H124.495L122.992 149.326H124.746L125.478 153.352L126.666 149.326H128.079L129.298 153.38L130.03 149.326H131.783L130.283 156.067H128.752L127.378 151.71L126.013 156.067H126.016Z"></path>
<path fill="#B3874B" d="M135.255 156.067H133.637V149.326H135.255V156.067Z"></path>
<path fill="#B3874B" d="M142.233 149.324V150.671H140.48V156.064H138.862V150.671H137.108V149.324H142.236H142.233Z"></path>
<path fill="#B3874B" d="M145.659 151.905H147.725V149.326H149.343V156.067H147.725V153.252H145.659V156.067H144.041V149.326H145.659V151.905Z"></path>
<path fill="#B3874B" d="M159.818 149.324V153.339C159.818 155.33 158.658 156.162 157.166 156.162C155.673 156.162 154.516 155.33 154.516 153.35V149.324H156.134V153.35C156.134 154.335 156.426 154.815 157.166 154.815C157.906 154.815 158.2 154.335 158.2 153.35V149.324H159.818Z"></path>
<path fill="#B3874B" d="M165.437 151.192C165.174 150.743 164.843 150.576 164.239 150.576C163.704 150.576 163.469 150.82 163.469 151.161C163.469 151.561 163.819 151.787 164.667 152.031C166.128 152.452 166.684 152.998 166.684 154.15C166.684 155.371 165.865 156.162 164.334 156.162C163.105 156.162 162.278 155.859 161.643 155.058L162.852 154.207C163.184 154.627 163.594 154.812 164.196 154.812C164.797 154.812 165.063 154.548 165.063 154.227C165.063 153.834 164.79 153.639 163.796 153.316C162.432 152.877 161.846 152.251 161.846 151.169C161.846 150.086 162.578 149.224 164.214 149.224C165.286 149.224 166.154 149.586 166.63 150.327L165.432 151.187L165.437 151.192Z"></path>
<path fill="#B3874B" d="M45.3066 102.059C45.4704 102.188 45.6932 102.285 45.9312 102.365L45.112 91.6782C44.9098 89.0483 47.7437 87.1727 49.9095 86.8007C49.3796 86.4517 48.8292 86.2105 48.2634 86.1053C46.2896 86.8674 44.5616 88.4299 44.106 90.4107L44.9866 101.469C45.0071 101.734 45.0941 101.893 45.3066 102.059Z"></path>
<path fill="#B3874B" d="M61.711 80.5042C62.0566 80.689 62.4073 80.8455 62.7503 81.0584C60.4003 83.8295 59.0511 85.4382 56.7343 88.2401C56.4707 87.9655 56.1942 87.7141 55.91 87.4806C55.7923 87.6243 55.6822 87.7551 55.5593 87.9065L55.1855 88.3632C55.5823 88.6917 55.9663 89.0534 56.3222 89.4742L56.7599 89.9899L57.19 89.4691C59.9036 86.1823 61.2732 84.5479 64.0303 81.2996L64.1302 81.1816C64.1046 80.9661 64.0713 80.7505 64.0303 80.5376L63.9126 80.4606C63.4364 80.145 62.9577 79.8653 62.479 79.5985L62.3817 79.714C62.1462 79.9936 61.9311 80.2502 61.7135 80.5068L61.711 80.5042Z"></path>
<path fill="#B3874B" d="M80.8059 82.739C81.7787 82.6467 82.5186 82.5799 83.3532 82.5055L83.3148 81.4741C83.3148 81.4741 83.3148 81.4587 83.3148 81.4536C83.2252 81.4356 83.0895 81.4202 82.9256 81.4074C82.0757 81.4844 81.2821 81.5562 80.1659 81.6614L79.8459 81.6922L80.0303 85.6999C80.3119 85.6743 80.614 85.6461 80.9314 85.6153L80.8085 82.7365L80.8059 82.739Z"></path>
<path fill="#B3874B" d="M117.729 79.9859C116.172 80.5042 114.867 81.6742 114.391 83.46L114.549 94.7803C114.557 95.3063 114.695 95.6911 114.974 95.9605C115.092 96.076 115.269 96.1453 115.438 96.2222L115.312 84.9123C115.287 82.6595 116.741 81.3945 118.394 80.9712C118.338 80.6428 118.236 80.3605 118.031 80.1604C117.954 80.086 117.831 80.0449 117.734 79.9859H117.729Z"></path>
<path fill="#B3874B" d="M65.7506 109.569L65.6482 109.485C65.1977 109.113 64.7855 108.772 64.3913 108.446L64.0533 108.805C63.9049 108.961 63.7461 109.1 63.5951 109.254C63.8716 109.482 64.1557 109.716 64.4578 109.965C61.2527 113.154 57.1567 115.106 51.965 115.93C51.4684 116.01 50.7925 116.089 50.0373 116.151C49.7557 116.205 49.4844 116.271 49.1951 116.318C48.1557 116.489 46.5455 116.69 44.6767 116.69C44.0316 116.69 43.3481 116.656 42.6543 116.6C44.5026 117.174 46.4329 117.367 48.1327 117.367C49.8325 117.367 51.2124 117.198 52.1391 117.049C57.8197 116.151 62.2562 113.947 65.6994 110.311L65.7865 110.219L65.7506 109.567V109.569Z"></path>
<path fill="#B3874B" d="M98.8667 87.5319C98.8641 87.5524 98.8564 87.5704 98.8539 87.5909L98.8692 88.2195C98.946 91.2677 98.0552 93.523 96.1531 95.0856C96.2913 95.4628 96.4244 95.8322 96.555 96.1915C97.62 95.3961 98.434 94.4365 98.9998 93.2998L98.8667 87.5294V87.5319Z"></path>
<path fill="#B3874B" d="M101.117 110.057L99.9446 110.129C99.9548 110.157 99.9625 110.183 99.9727 110.211C96.5705 110.398 94.6198 110.527 91.1305 110.788C91.1228 110.76 91.1151 110.737 91.1049 110.709C90.7337 110.737 90.3471 110.768 89.9478 110.799C90.0271 111.053 90.1039 111.289 90.1884 111.558L90.3241 111.986L90.7721 111.953C94.7964 111.65 96.7625 111.522 100.789 111.301L101.542 111.26L101.294 110.547C101.232 110.373 101.181 110.224 101.122 110.057H101.117Z"></path>
<path fill="#B3874B" d="M203.394 101.5L202.421 115.489L202.122 115.443L202.117 115.509C198.809 114.978 196.935 114.696 193.592 114.226L193.597 114.157C193.234 114.106 192.86 114.054 192.473 114.001L192.396 115.201L192.914 115.273C196.789 115.817 198.679 116.102 202.544 116.723L203.154 116.82L204.175 102.768C203.911 102.337 203.653 101.916 203.394 101.5Z"></path>
<path fill="#B3874B" d="M185.912 75.6985C185.689 75.6703 185.469 75.6446 185.257 75.619C185.144 75.9833 185.031 76.3528 184.919 76.7197C185.121 76.7428 185.313 76.7659 185.525 76.7915C181.888 88.4274 178.263 100.248 174.75 111.94C171.3 111.589 169.413 111.417 165.944 111.132C165.936 111.106 165.929 111.076 165.921 111.05C165.534 111.019 165.132 110.986 164.718 110.955C164.805 111.242 164.892 111.558 164.976 111.833L165.089 112.199L165.47 112.23C169.336 112.546 171.228 112.72 175.101 113.115L175.564 113.164L175.698 112.715C179.284 100.764 182.991 88.6788 186.711 76.7864C186.47 76.4503 186.199 76.0808 185.909 75.6959L185.912 75.6985Z"></path>
<path fill="#B3874B" d="M225.203 82.0411C225.052 82.0103 224.921 81.9847 224.775 81.9539L221.514 118.96L221.217 118.901V118.922C221.183 118.912 221.15 118.894 221.119 118.883L218.434 118.357C218.204 118.311 217.991 118.224 217.766 118.162C219.046 119.268 220.29 119.928 221.606 120.194L222.223 120.32L225.702 82.1463L225.205 82.0463L225.203 82.0411Z"></path>
<path fill="#B3874B" d="M158.558 104.371L156.108 110.424C152.801 110.219 150.958 110.121 147.655 109.977C147.648 109.949 147.642 109.921 147.637 109.893C147.261 109.877 146.872 109.859 146.47 109.844C146.529 110.113 146.588 110.37 146.649 110.647L146.744 111.073L147.177 111.091C150.886 111.25 152.742 111.348 156.449 111.581L156.853 111.607L159.068 106.136C158.904 105.572 158.732 104.964 158.563 104.371H158.558Z"></path>
<path fill="#B3874B" d="M81.825 99.7117C81.7073 99.3551 81.5895 98.9882 81.4641 98.6084C81.2746 98.6264 81.1057 98.6418 80.8958 98.6623L80.6244 98.688L81.2183 111.604L80.9162 111.635V111.714C77.5831 112.033 75.7118 112.23 72.4094 112.61L72.4042 112.536C72.0407 112.577 71.667 112.623 71.2778 112.669L71.3418 113.875L71.9409 113.806C75.7988 113.359 77.6881 113.162 81.5614 112.792L82.0964 112.741L81.5383 99.7374C81.6433 99.7271 81.7278 99.7194 81.8276 99.7117H81.825Z"></path>
<path fill="#B3874B" d="M134.036 80.417L133.972 95.5295C133.967 96.5481 133.867 97.518 133.688 98.4468L133.683 99.0343C133.611 108.89 123.921 110.095 119.759 110.157C119.214 110.167 118.451 110.152 117.578 110.083C117.288 110.098 117.007 110.124 116.71 110.129C116.495 110.134 116.28 110.134 116.067 110.134C114.298 110.134 112.65 109.967 111.119 109.664C114.219 111.058 117.624 111.291 119.452 111.291C119.567 111.291 119.674 111.291 119.774 111.291C123.281 111.24 134.732 110.206 134.812 99.0446L134.919 83.9347C134.932 82.0642 134.594 80.3836 133.931 78.8955C133.977 79.3984 134.033 79.8987 134.031 80.4221L134.036 80.417Z"></path>
<path fill="#B3874B" d="M142.95 47.6672C142.205 49.8148 140.984 51.7828 139.333 53.4351C136.458 56.3165 132.636 57.9022 128.571 57.9022C124.505 57.9022 120.683 56.3165 117.808 53.4351C114.934 50.5538 113.351 46.723 113.351 42.6486C113.351 38.5741 114.934 34.7434 117.808 31.862C120.683 28.9806 124.505 27.3949 128.571 27.3949C132.636 27.3949 136.458 28.9806 139.333 31.862C140.984 33.5169 142.205 35.4849 142.95 37.6299H144.655C143.856 35.0461 142.441 32.6805 140.477 30.7125C137.298 27.5258 133.069 25.7682 128.571 25.7682C124.073 25.7682 119.844 27.5232 116.664 30.7125C113.485 33.9018 111.731 38.1379 111.731 42.646C111.731 47.1541 113.482 51.3928 116.664 54.5795C119.844 57.7662 124.073 59.5238 128.571 59.5238C133.069 59.5238 137.298 57.7688 140.477 54.5795C142.438 52.6141 143.856 50.2459 144.655 47.6621H142.95V47.6672Z"></path>
<path fill="#B3874B" d="M137.313 41.8378H134.589C135.019 41.1553 135.209 40.3753 135.209 39.7287V38.9974H133.591V39.7287C133.591 39.9442 133.532 41.8378 131.486 41.8378H123.553V33.2372H131.481C131.835 33.2424 133.591 33.3655 133.591 35.3463V35.9955H124.928V37.617H137.316C139.294 37.617 139.417 39.3797 139.42 39.7313L140.229 39.7261H141.038C141.038 39.6312 141.025 38.7794 140.587 37.9019C139.973 36.6703 138.811 35.9929 137.313 35.9929H135.209V35.3438C135.209 32.6061 132.981 31.6105 131.484 31.6105H121.93V35.9929H119.826C118.328 35.9929 116.101 36.9859 116.101 39.7261C116.101 42.4664 118.328 43.4594 119.826 43.4594H121.93V47.6801H119.831C119.477 47.6749 117.721 47.5518 117.721 45.571H116.103C116.103 47.072 116.779 48.2369 118.008 48.8526C118.884 49.2914 119.733 49.3042 119.828 49.3042H133.591V49.9534C133.591 50.1689 133.532 52.0624 131.486 52.0624H123.553V50.682H121.935V53.684H131.489C134.221 53.684 135.214 51.4518 135.214 49.9508V45.5684C135.214 44.6961 134.986 44.0007 134.63 43.4594H137.318C139.297 43.4594 139.42 45.222 139.422 45.5633C139.417 45.9174 139.294 47.6775 137.318 47.6775H136.589V49.2991H137.318C140.05 49.2991 141.043 47.0669 141.043 45.5659C141.043 44.0649 140.052 41.8326 137.318 41.8326L137.313 41.8378ZM119.831 41.8378C119.477 41.8326 117.721 41.7095 117.721 39.7287C117.721 37.7479 119.48 37.6247 119.826 37.6196H121.93V41.8403H119.831V41.8378ZM133.591 45.5684V47.6775H123.55V43.4568H131.479C131.832 43.4619 133.588 43.5851 133.588 45.5659L133.591 45.5684Z"></path>
<path fill="#B3874B" d="M120.704 24.3134V19.9336L123.981 21.7579L128.192 18.4737L132.403 21.7579L135.68 19.9336V24.3134C135.68 24.3134 132.872 22.8535 128.192 22.8535C123.512 22.8535 120.704 24.3134 120.704 24.3134Z"></path>
<path fill="#B3874B" d="M74.6003 46.1073V39.1046H79.3885V40.1846H75.826V42.0002H79.3144V43.0801H75.826V45.024H79.3885V46.1039H74.6003V46.1073Z"></path>
<path fill="#B3874B" d="M82.9678 44.1769C83.4493 44.6899 84.2036 45.1421 85.1801 45.1421C86.1565 45.1421 86.5842 44.6494 86.5842 44.187C86.5842 43.556 85.84 43.367 84.9915 43.1476C83.85 42.8641 82.5099 42.5267 82.5099 41.0485C82.5099 39.8943 83.5268 39 85.0555 39C86.1464 39 87.0253 39.3476 87.6751 39.9753L86.9747 40.8899C86.4293 40.3432 85.6851 40.0934 84.9544 40.0934C84.2238 40.0934 83.7692 40.441 83.7692 40.9641C83.7692 41.4872 84.483 41.6897 85.308 41.8989C86.4596 42.1926 87.8334 42.5503 87.8334 44.0723C87.8334 45.2366 87.0152 46.2355 85.1295 46.2355C83.8399 46.2355 82.9072 45.7833 82.291 45.1219L82.9712 44.1769H82.9678Z"></path>
<path fill="#B3874B" d="M92.618 46.1073V40.1846H90.5034V39.1046H95.9616V40.1846H93.8436V46.1073H92.618Z"></path>
<path fill="#B3874B" d="M98.6317 44.754C99.0291 44.754 99.3658 45.0915 99.3658 45.4897C99.3658 45.8879 99.0291 46.2254 98.6317 46.2254C98.2344 46.2254 97.8977 45.8879 97.8977 45.4897C97.8977 45.0915 98.2344 44.754 98.6317 44.754Z"></path>
<path fill="#B3874B" d="M155.787 46.1073V45.1421C158.501 43.0835 159.558 42.1689 159.558 41.1632C159.558 40.4275 158.928 40.0934 158.292 40.0934C157.474 40.0934 156.847 40.4309 156.406 40.9338L155.692 40.1238C156.312 39.378 157.295 39 158.268 39C159.618 39 160.804 39.7661 160.804 41.1632C160.804 42.4558 159.618 43.61 157.746 45.0274H160.848V46.1073H155.787Z"></path>
<path fill="#B3874B" d="M166.817 39C168.777 39 169.616 40.8494 169.616 42.611C169.616 44.3727 168.777 46.2322 166.817 46.2322C164.858 46.2322 164.019 44.3727 164.019 42.611C164.019 40.8494 164.858 39 166.817 39ZM166.817 40.0934C165.676 40.0934 165.265 41.2814 165.265 42.6144C165.265 43.9474 165.673 45.1455 166.817 45.1455C167.962 45.1455 168.366 43.9474 168.366 42.6144C168.366 41.2814 167.959 40.0934 166.817 40.0934Z"></path>
<path fill="#B3874B" d="M174.148 46.1073V40.7009L173.006 41.8888L172.292 41.143L174.303 39.1046H175.37V46.1073H174.144H174.148Z"></path>
<path fill="#B3874B" d="M181.838 46.1073V44.5211H178.508V43.5357L181.381 39.1046H183.067V43.4412H184V44.5211H183.067V46.1073H181.842H181.838ZM181.838 40.2082L179.71 43.4412H181.838V40.2082Z"></path>
<path fill="#B3874B" d="M128 190.497L127.859 190.464L19.9269 164.708L19.8731 164.288L4.45166 40.6113L4.95086 40.4651L128 4.49527L251.548 40.6113L251.484 41.127L236.073 164.706L235.661 164.803L128 190.494V190.497ZM21.0328 163.715L128 189.242L234.967 163.715L250.209 41.494L128 5.7679L5.78798 41.494L21.0302 163.715H21.0328Z"></path>
<path fill="#B3874B" d="M91.1716 149.324C92.7588 149.324 93.6855 149.881 93.6855 151.112C93.6855 151.805 93.3835 152.205 92.915 152.518C93.5294 152.821 93.898 153.298 93.898 154.13C93.898 155.205 93.1787 156.064 91.3841 156.064H88.8215V149.324H91.1716ZM90.442 151.895H91.123C91.7758 151.895 92.0702 151.689 92.0702 151.297C92.0702 150.904 91.8654 150.663 90.9771 150.663H90.442V151.895ZM90.442 154.717H91.2126C91.9345 154.717 92.2852 154.473 92.2852 153.973C92.2852 153.427 91.914 153.239 91.0948 153.239H90.442V154.715V154.717Z"></path>
<path fill="#B3874B" d="M101.112 149.324V153.339C101.112 155.33 99.9524 156.162 98.4599 156.162C96.9674 156.162 95.8103 155.33 95.8103 153.35V149.324H97.4282V153.35C97.4282 154.335 97.7201 154.815 98.4599 154.815C99.1997 154.815 99.4941 154.335 99.4941 153.35V149.324H101.112Z"></path>
<path fill="#B3874B" d="M105.011 156.067H103.393V149.326H105.011V156.067Z"></path>
<path fill="#B3874B" d="M108.91 154.717H111.542V156.064H107.292V149.324H108.91V154.717Z"></path>
<path fill="#B3874B" d="M113.349 156.067V149.326H115.853C117.383 149.326 118.505 150.078 118.505 152.208V153.185C118.505 155.294 117.383 156.067 115.853 156.067H113.349ZM116.887 153.185V152.208C116.887 151.299 116.692 150.673 115.853 150.673H114.967V154.72H115.853C116.69 154.72 116.887 154.094 116.887 153.185Z"></path>
<path fill="#B3874B" d="M126.016 156.067H124.495L122.992 149.326H124.746L125.478 153.352L126.666 149.326H128.079L129.298 153.38L130.03 149.326H131.783L130.283 156.067H128.752L127.378 151.71L126.013 156.067H126.016Z"></path>
<path fill="#B3874B" d="M135.255 156.067H133.637V149.326H135.255V156.067Z"></path>
<path fill="#B3874B" d="M142.233 149.324V150.671H140.48V156.064H138.862V150.671H137.108V149.324H142.236H142.233Z"></path>
<path fill="#B3874B" d="M145.659 151.905H147.725V149.326H149.343V156.067H147.725V153.252H145.659V156.067H144.041V149.326H145.659V151.905Z"></path>
<path fill="#B3874B" d="M159.818 149.324V153.339C159.818 155.33 158.658 156.162 157.166 156.162C155.673 156.162 154.516 155.33 154.516 153.35V149.324H156.134V153.35C156.134 154.335 156.426 154.815 157.166 154.815C157.906 154.815 158.2 154.335 158.2 153.35V149.324H159.818Z"></path>
<path fill="#B3874B" d="M165.437 151.192C165.174 150.743 164.843 150.576 164.239 150.576C163.704 150.576 163.469 150.82 163.469 151.161C163.469 151.561 163.819 151.787 164.667 152.031C166.128 152.452 166.684 152.998 166.684 154.15C166.684 155.371 165.865 156.162 164.334 156.162C163.105 156.162 162.278 155.859 161.643 155.058L162.852 154.207C163.184 154.627 163.594 154.812 164.196 154.812C164.797 154.812 165.063 154.548 165.063 154.227C165.063 153.834 164.79 153.639 163.796 153.316C162.432 152.877 161.846 152.251 161.846 151.169C161.846 150.086 162.578 149.224 164.214 149.224C165.286 149.224 166.154 149.586 166.63 150.327L165.432 151.187L165.437 151.192Z"></path>
<path fill="#B3874B" d="M45.3066 102.059C45.4704 102.188 45.6932 102.285 45.9312 102.365L45.112 91.6782C44.9098 89.0483 47.7437 87.1727 49.9095 86.8007C49.3796 86.4517 48.8292 86.2105 48.2634 86.1053C46.2896 86.8674 44.5616 88.4299 44.106 90.4107L44.9866 101.469C45.0071 101.734 45.0941 101.893 45.3066 102.059Z"></path>
<path fill="#B3874B" d="M61.711 80.5042C62.0566 80.689 62.4073 80.8455 62.7503 81.0584C60.4003 83.8295 59.0511 85.4382 56.7343 88.2401C56.4707 87.9655 56.1942 87.7141 55.91 87.4806C55.7923 87.6243 55.6822 87.7551 55.5593 87.9065L55.1855 88.3632C55.5823 88.6917 55.9663 89.0534 56.3222 89.4742L56.7599 89.9899L57.19 89.4691C59.9036 86.1823 61.2732 84.5479 64.0303 81.2996L64.1302 81.1816C64.1046 80.9661 64.0713 80.7505 64.0303 80.5376L63.9126 80.4606C63.4364 80.145 62.9577 79.8653 62.479 79.5985L62.3817 79.714C62.1462 79.9936 61.9311 80.2502 61.7135 80.5068L61.711 80.5042Z"></path>
<path fill="#B3874B" d="M80.8059 82.739C81.7787 82.6467 82.5186 82.5799 83.3532 82.5055L83.3148 81.4741C83.3148 81.4741 83.3148 81.4587 83.3148 81.4536C83.2252 81.4356 83.0895 81.4202 82.9256 81.4074C82.0757 81.4844 81.2821 81.5562 80.1659 81.6614L79.8459 81.6922L80.0303 85.6999C80.3119 85.6743 80.614 85.6461 80.9314 85.6153L80.8085 82.7365L80.8059 82.739Z"></path>
<path fill="#B3874B" d="M117.729 79.9859C116.172 80.5042 114.867 81.6742 114.391 83.46L114.549 94.7803C114.557 95.3063 114.695 95.6911 114.974 95.9605C115.092 96.076 115.269 96.1453 115.438 96.2222L115.312 84.9123C115.287 82.6595 116.741 81.3945 118.394 80.9712C118.338 80.6428 118.236 80.3605 118.031 80.1604C117.954 80.086 117.831 80.0449 117.734 79.9859H117.729Z"></path>
<path fill="#B3874B" d="M65.7506 109.569L65.6482 109.485C65.1977 109.113 64.7855 108.772 64.3913 108.446L64.0533 108.805C63.9049 108.961 63.7461 109.1 63.5951 109.254C63.8716 109.482 64.1557 109.716 64.4578 109.965C61.2527 113.154 57.1567 115.106 51.965 115.93C51.4684 116.01 50.7925 116.089 50.0373 116.151C49.7557 116.205 49.4844 116.271 49.1951 116.318C48.1557 116.489 46.5455 116.69 44.6767 116.69C44.0316 116.69 43.3481 116.656 42.6543 116.6C44.5026 117.174 46.4329 117.367 48.1327 117.367C49.8325 117.367 51.2124 117.198 52.1391 117.049C57.8197 116.151 62.2562 113.947 65.6994 110.311L65.7865 110.219L65.7506 109.567V109.569Z"></path>
<path fill="#B3874B" d="M98.8667 87.5319C98.8641 87.5524 98.8564 87.5704 98.8539 87.5909L98.8692 88.2195C98.946 91.2677 98.0552 93.523 96.1531 95.0856C96.2913 95.4628 96.4244 95.8322 96.555 96.1915C97.62 95.3961 98.434 94.4365 98.9998 93.2998L98.8667 87.5294V87.5319Z"></path>
<path fill="#B3874B" d="M101.117 110.057L99.9446 110.129C99.9548 110.157 99.9625 110.183 99.9727 110.211C96.5705 110.398 94.6198 110.527 91.1305 110.788C91.1228 110.76 91.1151 110.737 91.1049 110.709C90.7337 110.737 90.3471 110.768 89.9478 110.799C90.0271 111.053 90.1039 111.289 90.1884 111.558L90.3241 111.986L90.7721 111.953C94.7964 111.65 96.7625 111.522 100.789 111.301L101.542 111.26L101.294 110.547C101.232 110.373 101.181 110.224 101.122 110.057H101.117Z"></path>
<path fill="#B3874B" d="M203.394 101.5L202.421 115.489L202.122 115.443L202.117 115.509C198.809 114.978 196.935 114.696 193.592 114.226L193.597 114.157C193.234 114.106 192.86 114.054 192.473 114.001L192.396 115.201L192.914 115.273C196.789 115.817 198.679 116.102 202.544 116.723L203.154 116.82L204.175 102.768C203.911 102.337 203.653 101.916 203.394 101.5Z"></path>
<path fill="#B3874B" d="M185.912 75.6985C185.689 75.6703 185.469 75.6446 185.257 75.619C185.144 75.9833 185.031 76.3528 184.919 76.7197C185.121 76.7428 185.313 76.7659 185.525 76.7915C181.888 88.4274 178.263 100.248 174.75 111.94C171.3 111.589 169.413 111.417 165.944 111.132C165.936 111.106 165.929 111.076 165.921 111.05C165.534 111.019 165.132 110.986 164.718 110.955C164.805 111.242 164.892 111.558 164.976 111.833L165.089 112.199L165.47 112.23C169.336 112.546 171.228 112.72 175.101 113.115L175.564 113.164L175.698 112.715C179.284 100.764 182.991 88.6788 186.711 76.7864C186.47 76.4503 186.199 76.0808 185.909 75.6959L185.912 75.6985Z"></path>
<path fill="#B3874B" d="M225.203 82.0411C225.052 82.0103 224.921 81.9847 224.775 81.9539L221.514 118.96L221.217 118.901V118.922C221.183 118.912 221.15 118.894 221.119 118.883L218.434 118.357C218.204 118.311 217.991 118.224 217.766 118.162C219.046 119.268 220.29 119.928 221.606 120.194L222.223 120.32L225.702 82.1463L225.205 82.0463L225.203 82.0411Z"></path>
<path fill="#B3874B" d="M158.558 104.371L156.108 110.424C152.801 110.219 150.958 110.121 147.655 109.977C147.648 109.949 147.642 109.921 147.637 109.893C147.261 109.877 146.872 109.859 146.47 109.844C146.529 110.113 146.588 110.37 146.649 110.647L146.744 111.073L147.177 111.091C150.886 111.25 152.742 111.348 156.449 111.581L156.853 111.607L159.068 106.136C158.904 105.572 158.732 104.964 158.563 104.371H158.558Z"></path>
<path fill="#B3874B" d="M81.825 99.7117C81.7073 99.3551 81.5895 98.9882 81.4641 98.6084C81.2746 98.6264 81.1057 98.6418 80.8958 98.6623L80.6244 98.688L81.2183 111.604L80.9162 111.635V111.714C77.5831 112.033 75.7118 112.23 72.4094 112.61L72.4042 112.536C72.0407 112.577 71.667 112.623 71.2778 112.669L71.3418 113.875L71.9409 113.806C75.7988 113.359 77.6881 113.162 81.5614 112.792L82.0964 112.741L81.5383 99.7374C81.6433 99.7271 81.7278 99.7194 81.8276 99.7117H81.825Z"></path>
<path fill="#B3874B" d="M134.036 80.417L133.972 95.5295C133.967 96.5481 133.867 97.518 133.688 98.4468L133.683 99.0343C133.611 108.89 123.921 110.095 119.759 110.157C119.214 110.167 118.451 110.152 117.578 110.083C117.288 110.098 117.007 110.124 116.71 110.129C116.495 110.134 116.28 110.134 116.067 110.134C114.298 110.134 112.65 109.967 111.119 109.664C114.219 111.058 117.624 111.291 119.452 111.291C119.567 111.291 119.674 111.291 119.774 111.291C123.281 111.24 134.732 110.206 134.812 99.0446L134.919 83.9347C134.932 82.0642 134.594 80.3836 133.931 78.8955C133.977 79.3984 134.033 79.8987 134.031 80.4221L134.036 80.417Z"></path>
<path fill="#B3874B" d="M142.95 47.6672C142.205 49.8148 140.984 51.7828 139.333 53.4351C136.458 56.3165 132.636 57.9022 128.571 57.9022C124.505 57.9022 120.683 56.3165 117.808 53.4351C114.934 50.5538 113.351 46.723 113.351 42.6486C113.351 38.5741 114.934 34.7434 117.808 31.862C120.683 28.9806 124.505 27.3949 128.571 27.3949C132.636 27.3949 136.458 28.9806 139.333 31.862C140.984 33.5169 142.205 35.4849 142.95 37.6299H144.655C143.856 35.0461 142.441 32.6805 140.477 30.7125C137.298 27.5258 133.069 25.7682 128.571 25.7682C124.073 25.7682 119.844 27.5232 116.664 30.7125C113.485 33.9018 111.731 38.1379 111.731 42.646C111.731 47.1541 113.482 51.3928 116.664 54.5795C119.844 57.7662 124.073 59.5238 128.571 59.5238C133.069 59.5238 137.298 57.7688 140.477 54.5795C142.438 52.6141 143.856 50.2459 144.655 47.6621H142.95V47.6672Z"></path>
<path fill="#B3874B" d="M137.313 41.8378H134.589C135.019 41.1553 135.209 40.3753 135.209 39.7287V38.9974H133.591V39.7287C133.591 39.9442 133.532 41.8378 131.486 41.8378H123.553V33.2372H131.481C131.835 33.2424 133.591 33.3655 133.591 35.3463V35.9955H124.928V37.617H137.316C139.294 37.617 139.417 39.3797 139.42 39.7313L140.229 39.7261H141.038C141.038 39.6312 141.025 38.7794 140.587 37.9019C139.973 36.6703 138.811 35.9929 137.313 35.9929H135.209V35.3438C135.209 32.6061 132.981 31.6105 131.484 31.6105H121.93V35.9929H119.826C118.328 35.9929 116.101 36.9859 116.101 39.7261C116.101 42.4664 118.328 43.4594 119.826 43.4594H121.93V47.6801H119.831C119.477 47.6749 117.721 47.5518 117.721 45.571H116.103C116.103 47.072 116.779 48.2369 118.008 48.8526C118.884 49.2914 119.733 49.3042 119.828 49.3042H133.591V49.9534C133.591 50.1689 133.532 52.0624 131.486 52.0624H123.553V50.682H121.935V53.684H131.489C134.221 53.684 135.214 51.4518 135.214 49.9508V45.5684C135.214 44.6961 134.986 44.0007 134.63 43.4594H137.318C139.297 43.4594 139.42 45.222 139.422 45.5633C139.417 45.9174 139.294 47.6775 137.318 47.6775H136.589V49.2991H137.318C140.05 49.2991 141.043 47.0669 141.043 45.5659C141.043 44.0649 140.052 41.8326 137.318 41.8326L137.313 41.8378ZM119.831 41.8378C119.477 41.8326 117.721 41.7095 117.721 39.7287C117.721 37.7479 119.48 37.6247 119.826 37.6196H121.93V41.8403H119.831V41.8378ZM133.591 45.5684V47.6775H123.55V43.4568H131.479C131.832 43.4619 133.588 43.5851 133.588 45.5659L133.591 45.5684Z"></path>
<path fill="#B3874B" d="M120.704 24.3134V19.9336L123.981 21.7579L128.192 18.4737L132.403 21.7579L135.68 19.9336V24.3134C135.68 24.3134 132.872 22.8535 128.192 22.8535C123.512 22.8535 120.704 24.3134 120.704 24.3134Z"></path>
<path fill="#B3874B" d="M74.6003 46.1073V39.1046H79.3885V40.1846H75.826V42.0002H79.3144V43.0801H75.826V45.024H79.3885V46.1039H74.6003V46.1073Z"></path>
<path fill="#B3874B" d="M82.9678 44.1769C83.4493 44.6899 84.2036 45.1421 85.1801 45.1421C86.1565 45.1421 86.5842 44.6494 86.5842 44.187C86.5842 43.556 85.84 43.367 84.9915 43.1476C83.85 42.8641 82.5099 42.5267 82.5099 41.0485C82.5099 39.8943 83.5268 39 85.0555 39C86.1464 39 87.0253 39.3476 87.6751 39.9753L86.9747 40.8899C86.4293 40.3432 85.6851 40.0934 84.9544 40.0934C84.2238 40.0934 83.7692 40.441 83.7692 40.9641C83.7692 41.4872 84.483 41.6897 85.308 41.8989C86.4596 42.1926 87.8334 42.5503 87.8334 44.0723C87.8334 45.2366 87.0152 46.2355 85.1295 46.2355C83.8399 46.2355 82.9072 45.7833 82.291 45.1219L82.9712 44.1769H82.9678Z"></path>
<path fill="#B3874B" d="M92.618 46.1073V40.1846H90.5034V39.1046H95.9616V40.1846H93.8436V46.1073H92.618Z"></path>
<path fill="#B3874B" d="M98.6317 44.754C99.0291 44.754 99.3658 45.0915 99.3658 45.4897C99.3658 45.8879 99.0291 46.2254 98.6317 46.2254C98.2344 46.2254 97.8977 45.8879 97.8977 45.4897C97.8977 45.0915 98.2344 44.754 98.6317 44.754Z"></path>
<path fill="#B3874B" d="M155.787 46.1073V45.1421C158.501 43.0835 159.558 42.1689 159.558 41.1632C159.558 40.4275 158.928 40.0934 158.292 40.0934C157.474 40.0934 156.847 40.4309 156.406 40.9338L155.692 40.1238C156.312 39.378 157.295 39 158.268 39C159.618 39 160.804 39.7661 160.804 41.1632C160.804 42.4558 159.618 43.61 157.746 45.0274H160.848V46.1073H155.787Z"></path>
<path fill="#B3874B" d="M166.817 39C168.777 39 169.616 40.8494 169.616 42.611C169.616 44.3727 168.777 46.2322 166.817 46.2322C164.858 46.2322 164.019 44.3727 164.019 42.611C164.019 40.8494 164.858 39 166.817 39ZM166.817 40.0934C165.676 40.0934 165.265 41.2814 165.265 42.6144C165.265 43.9474 165.673 45.1455 166.817 45.1455C167.962 45.1455 168.366 43.9474 168.366 42.6144C168.366 41.2814 167.959 40.0934 166.817 40.0934Z"></path>
<path fill="#B3874B" d="M174.148 46.1073V40.7009L173.006 41.8888L172.292 41.143L174.303 39.1046H175.37V46.1073H174.144H174.148Z"></path>
<path fill="#B3874B" d="M181.838 46.1073V44.5211H178.508V43.5357L181.381 39.1046H183.067V43.4412H184V44.5211H183.067V46.1073H181.842H181.838ZM181.838 40.2082L179.71 43.4412H181.838V40.2082Z"></path>
<path fill="white" d="M58.98 128.592C59.6865 129.003 59.8222 129.549 59.8222 130.278V130.935C59.8222 132.987 58.5345 133.385 56.4302 133.385H52.9819V126.032C52.9819 125.182 52.6619 124.4 52.1396 123.797H56.4302C58.5371 123.797 59.8222 124.182 59.8222 126.127V126.688C59.8222 127.402 59.684 128.182 58.98 128.592ZM57.4773 126.263C57.4773 125.88 57.2161 125.66 56.7707 125.66H55.3243V127.645H56.7937C57.4209 127.645 57.4773 127.263 57.4773 126.822V126.26V126.263ZM57.4773 130.278C57.4773 129.908 57.4209 129.524 56.7937 129.524H55.3243V131.51H56.7707C57.2161 131.51 57.4773 131.263 57.4773 130.85V130.275V130.278Z"></path>
<path fill="white" d="M69.9293 123.797V130.524C69.9293 132.867 67.9504 133.524 66.4221 133.524C64.8938 133.524 62.9277 132.867 62.9277 130.524V126.032C62.9277 125.182 62.6077 124.4 62.0854 123.797H65.2726V130.288C65.2726 131.043 65.8077 131.466 66.4221 131.466C67.0365 131.466 67.5715 131.04 67.5715 130.288V123.797H69.9267H69.9293Z"></path>
<path fill="white" d="M75.7377 133.385H73.3928V126.032C73.3928 125.182 73.0728 124.4 72.5505 123.797H75.7377V133.385Z"></path>
<path fill="white" d="M79.3396 133.385V126.032C79.3396 125.182 79.0196 124.4 78.4973 123.797H81.6845V131.468H83.858C84.6336 131.468 85.0996 131.194 85.4989 130.509L86.3744 133.385H79.3396Z"></path>
<path fill="white" d="M96.3074 126.673V130.522C96.3074 132.864 94.5538 133.383 92.813 133.383H89.3186V126.029C89.3186 125.18 88.9986 124.397 88.4763 123.794H92.813C94.5538 123.794 96.3074 124.315 96.3074 126.67V126.673ZM93.9624 126.894C93.9624 126.155 93.4274 125.852 92.813 125.852H91.6635V131.33H92.813C93.4274 131.33 93.9624 131.043 93.9624 130.288V126.891V126.894Z"></path>
<path fill="white" d="M101.768 133.385H99.4228V126.032C99.4228 125.182 99.1028 124.4 98.5806 123.797H101.768V133.385Z"></path>
<path fill="white" d="M105.697 126.537C105.697 125.303 105.436 124.892 104.525 123.797H107.428L110.377 127.92V123.797H112.732V133.385C111.982 133.385 111.276 132.81 110.252 131.386L108.055 128.333V133.388H105.7V126.54L105.697 126.537Z"></path>
<path fill="white" d="M119.291 127.633H122.762V133.508C122.762 133.508 122.284 133.113 121.703 133.113C121.121 133.113 120.758 133.508 119.47 133.508C117.944 133.508 115.771 132.851 115.771 130.509V126.635C115.771 124.292 117.944 123.635 119.47 123.635C120.871 123.635 121.838 124.005 122.773 124.841L121.042 126.688C120.609 126.016 120.028 125.69 119.47 125.69C118.856 125.69 118.116 126.114 118.116 126.868V130.278C118.116 131.03 118.856 131.456 119.47 131.456C119.8 131.456 120.12 131.374 120.405 131.168C120.576 131.019 120.576 130.894 120.576 130.553C120.586 130.127 120.586 129.855 120.586 129.511H119.87L119.288 127.633H119.291Z"></path>
<path fill="white" d="M136.896 130.604V130.768C136.896 132.574 135.337 133.521 133.481 133.521C132.035 133.521 130.921 133.164 129.746 132.315L131.533 130.411C132.227 131.15 132.831 131.384 133.537 131.384C134.129 131.384 134.561 131.15 134.561 130.699V130.629C134.561 130.096 134.139 129.849 132.557 129.203C131.054 128.587 130.122 127.833 130.122 126.257V126.121C130.122 124.451 131.761 123.656 133.402 123.656C134.881 123.656 135.962 124.082 136.784 124.862L135.155 126.588C134.756 125.903 134.108 125.559 133.392 125.559C132.777 125.559 132.344 125.821 132.344 126.175V126.257C132.344 126.627 132.754 126.914 134.234 127.517C136.021 128.243 136.896 128.818 136.896 130.599V130.604Z"></path>
<path fill="white" d="M147.054 123.797V130.524C147.054 132.867 145.075 133.524 143.547 133.524C142.019 133.524 140.053 132.867 140.053 130.524V126.032C140.053 125.182 139.733 124.4 139.21 123.797H142.398V130.288C142.398 131.043 142.933 131.466 143.547 131.466C144.161 131.466 144.697 131.04 144.697 130.288V123.797H147.052H147.054Z"></path>
<path fill="white" d="M157.361 126.278V127.717C157.361 129.634 156.073 130.18 153.969 130.18H152.865V133.385H150.52V126.032C150.52 125.182 150.2 124.4 149.678 123.797H153.969C156.076 123.797 157.361 124.346 157.361 126.278ZM155.016 126.483C155.016 125.937 154.686 125.675 153.969 125.675H152.865V128.32H153.969C154.686 128.32 155.016 128.059 155.016 127.497V126.483Z"></path>
<path fill="white" d="M167.153 126.278V127.717C167.153 129.634 165.865 130.18 163.761 130.18H162.657V133.385H160.312V126.032C160.312 125.182 159.992 124.4 159.47 123.797H163.761C165.868 123.797 167.153 124.346 167.153 126.278ZM164.808 126.483C164.808 125.937 164.478 125.675 163.761 125.675H162.657V128.32H163.761C164.478 128.32 164.808 128.059 164.808 127.497V126.483Z"></path>
<path fill="white" d="M170.102 133.385V126.032C170.102 125.182 169.782 124.4 169.26 123.797H172.447V131.468H174.62C175.396 131.468 175.862 131.194 176.261 130.509L177.137 133.385H170.102Z"></path>
<path fill="white" d="M182.431 133.385H180.086V126.032C180.086 125.182 179.766 124.4 179.244 123.797H182.431V133.385Z"></path>
<path fill="white" d="M192.213 130.55C192.497 131.494 193.078 133.37 193.078 133.37L186.03 133.385V126.032C186.03 125.182 185.71 124.4 185.188 123.797L193.078 123.812C192.794 124.756 192.497 125.69 192.213 126.635C191.813 125.949 191.347 125.675 190.572 125.675H188.385V127.661H190.912C190.684 128.415 190.572 128.772 190.331 129.524H188.385V131.51H190.572C191.345 131.51 191.813 131.235 192.213 130.55Z"></path>
<path fill="white" d="M202.819 130.604V130.768C202.819 132.574 201.26 133.521 199.404 133.521C197.957 133.521 196.844 133.164 195.669 132.315L197.456 130.411C198.149 131.15 198.754 131.384 199.46 131.384C200.051 131.384 200.484 131.15 200.484 130.699V130.629C200.484 130.096 200.062 129.849 198.48 129.203C196.977 128.587 196.045 127.833 196.045 126.257V126.121C196.045 124.451 197.683 123.656 199.324 123.656C200.804 123.656 201.884 124.082 202.706 124.862L201.078 126.588C200.679 125.903 200.031 125.559 199.314 125.559C198.7 125.559 198.267 125.821 198.267 126.175V126.257C198.267 126.627 198.677 126.914 200.156 127.517C201.943 128.243 202.819 128.818 202.819 130.599V130.604Z"></path>
<path fill="white" d="M53.8395 100.582C57.0088 103.083 58.5832 104.348 61.7167 106.904C58.0712 110.778 53.5861 112.725 48.4559 113.575C42.3912 114.578 33.1035 113.842 32.2946 104.789C31.7595 98.7983 31.4933 95.8014 30.9583 89.8103C30.1493 80.7582 39.3218 76.4041 45.6066 75.3649C51.5509 74.3797 55.7775 75.2212 59.9349 77.9256C57.1752 81.197 55.8082 82.8416 53.092 86.1541C51.0952 83.8269 48.5506 82.9366 46.2005 83.3266C43.6072 83.7551 40.6248 85.9488 40.8578 88.8661C41.2699 94.0208 41.4747 96.5968 41.8869 101.752C42.1199 104.669 45.3019 105.772 47.8415 105.354C50.5218 104.91 52.365 103.442 53.8395 100.589V100.582Z"></path>
<path fill="white" d="M87.2374 108.176C85.6144 103.111 84.7952 100.584 83.1388 95.532C82.6832 95.5731 82.4553 95.5936 81.9971 95.6372C80.1539 95.8091 79.2323 95.8989 77.3891 96.0862C77.6297 101.285 77.75 103.886 77.9881 109.085C74.1225 109.48 72.1897 109.698 68.3292 110.17C67.6969 98.7393 67.3795 93.0227 66.7472 81.5921C66.5654 78.2925 65.0448 75.4214 62.6768 73.3713C69.9881 72.4194 73.6489 72.0114 80.9808 71.3341C89.974 70.5002 95.5395 72.3399 95.7545 79.8628C95.8134 81.8897 95.8416 82.9032 95.8979 84.9302C96.008 88.7712 94.6409 91.3113 92.0656 92.938C94.1827 98.7316 95.2272 101.633 97.2931 107.45C93.2662 107.696 91.2566 107.843 87.2348 108.176H87.2374ZM81.695 88.3889C84.7107 88.1092 86.0598 86.988 85.9779 84.8019C85.9267 83.4369 85.9011 82.7544 85.8499 81.3894C85.7705 79.2572 84.3318 78.3541 81.288 78.6337C79.414 78.8082 78.4796 78.898 76.6057 79.0905C76.7849 82.9905 76.8745 84.9405 77.0563 88.8405C78.9123 88.6506 79.839 88.5608 81.695 88.3889Z"></path>
<path fill="white" d="M101.609 96.1453C101.468 90.1054 101.397 87.0829 101.256 81.043C101.041 71.9165 109.463 68.9453 115.996 68.8042C122.532 68.6631 130.96 71.2699 130.924 80.4016C130.901 86.4466 130.888 89.4691 130.865 95.5141C130.829 104.643 122.678 107.165 116.373 107.301C110.068 107.437 101.824 105.272 101.609 96.1478V96.1453ZM121.058 94.6212C121.029 89.3023 121.017 86.6441 120.988 81.3253C120.973 78.39 118.69 76.7582 116.076 76.8146C113.462 76.8711 111.209 78.6004 111.25 81.5357C111.327 86.852 111.363 89.5127 111.44 94.829C111.481 97.7643 113.733 99.3474 116.293 99.2935C118.853 99.237 121.073 97.559 121.058 94.6212Z"></path>
<path fill="white" d="M136.919 76.966C135.887 73.3662 134.835 71.311 132.019 69.2532C137.244 69.3097 139.858 69.3713 145.08 69.5663C147.228 78.7466 148.278 83.3445 150.326 92.548C151.437 89.759 151.998 88.3684 153.124 85.5845C153.892 83.6499 153.951 81.4074 153.275 79.3958C153.004 78.6338 152.778 77.9256 152.553 77.22C156.017 77.4022 157.747 77.5099 161.211 77.7511C163.315 84.0784 164.352 87.2497 166.39 93.5974C168.958 84.6941 170.263 80.2528 172.923 71.3854C176.947 71.7626 178.959 71.9704 182.979 72.4297C179.233 84.5171 175.56 96.6174 171.953 108.746C168.085 108.379 166.149 108.215 162.276 107.925C161.129 104.258 159.908 99.5193 158.339 94.5519C156.434 99.2909 154.609 103.832 153.203 107.335C149.478 107.127 147.615 107.042 143.887 106.909C141.182 94.9111 139.789 88.9226 136.919 76.9634V76.966Z"></path>
<path fill="white" d="M191.452 84.1964C191.739 79.4086 190.741 77.6536 187.095 72.9197C192.044 73.5278 194.514 73.8614 199.452 74.5952C204.04 81.7358 206.293 85.333 210.719 92.5788C211.221 86.1926 211.472 83.0007 211.973 76.6145C215.969 77.3124 217.966 77.6818 221.955 78.4593C220.869 90.8136 219.784 103.168 218.698 115.522C215.629 114.922 212.949 112.156 209.152 105.906C205.896 100.546 204.245 97.8797 200.899 92.5762C200.356 100.417 200.082 104.335 199.539 112.176C195.671 111.581 193.733 111.304 189.857 110.788C190.495 100.15 190.815 94.8316 191.455 84.1964H191.452Z"></path>
</g>
<defs>
<clipPath id="clip0_215_1023">
<rect fill="white" height="195" width="256"></rect>
</clipPath>
</defs>
</svg>